<svg width="23" height="23" viewBox="0 0 23 23" fill="none" xmlns="http://www.w3.org/2000/svg">
<path d="M0.292893 21.2929C-0.0976311 21.6834 -0.0976311 22.3166 0.292893 22.7071C0.683418 23.0976 1.31658 23.0976 1.70711 22.7071L0.292893 21.2929ZM23 1C23 0.447716 22.5523 3.73706e-07 22 1.20825e-07L13 9.21615e-07C12.4477 5.84441e-07 12 0.447716 12 1C12 1.55229 12.4477 2 13 2L21 2L21 10C21 10.5523 21.4477 11 22 11C22.5523 11 23 10.5523 23 10L23 1ZM1.70711 22.7071L22.7071 1.70711L21.2929 0.292894L0.292893 21.2929L1.70711 22.7071Z" fill="white"/>
</svg>
