<svg width="35" height="36" viewBox="0 0 35 36" fill="none" xmlns="http://www.w3.org/2000/svg">
<path d="M17.5 34.0417C17.1133 34.0417 16.7423 33.8881 16.4688 33.6146C16.1954 33.3411 16.0417 32.9701 16.0417 32.5834V28.2084H10.2084C9.43483 28.2084 8.69296 27.9011 8.14598 27.3541C7.599 26.8071 7.29171 26.0653 7.29171 25.2917V10.7084C7.29171 9.93483 7.599 9.19296 8.14598 8.64598C8.69296 8.099 9.43483 7.79171 10.2084 7.79171H30.625C31.3986 7.79171 32.1405 8.099 32.6874 8.64598C33.2344 9.19296 33.5417 9.93483 33.5417 10.7084V25.2917C33.5417 26.0653 33.2344 26.8071 32.6874 27.3541C32.1405 27.9011 31.3986 28.2084 30.625 28.2084H24.6459L19.25 33.6188C18.9584 33.8959 18.5938 34.0417 18.2292 34.0417H17.5ZM18.9584 25.2917V29.7834L23.45 25.2917H30.625V10.7084H10.2084V25.2917H18.9584ZM4.37504 22.375H1.45837V4.87504C1.45837 4.10149 1.76566 3.35963 2.31265 2.81265C2.85963 2.26566 3.60149 1.95837 4.37504 1.95837H27.7084V4.87504H4.37504V22.375Z" fill="black"/>
</svg>
