<svg width="34" height="31" viewBox="0 0 34 31" fill="none" xmlns="http://www.w3.org/2000/svg">
<path d="M17.1667 25.9167L17 26.0833L16.8167 25.9167C8.90004 18.7333 3.66671 13.9833 3.66671 9.16667C3.66671 5.83333 6.16671 3.33333 9.50004 3.33333C12.0667 3.33333 14.5667 5 15.45 7.26667H18.55C19.4334 5 21.9334 3.33333 24.5 3.33333C27.8334 3.33333 30.3334 5.83333 30.3334 9.16667C30.3334 13.9833 25.1 18.7333 17.1667 25.9167ZM24.5 0C21.6 0 18.8167 1.35 17 3.46667C15.1834 1.35 12.4 0 9.50004 0C4.36671 0 0.333374 4.01667 0.333374 9.16667C0.333374 15.45 6.00004 20.6 14.5834 28.3833L17 30.5833L19.4167 28.3833C28 20.6 33.6667 15.45 33.6667 9.16667C33.6667 4.01667 29.6334 0 24.5 0Z" fill="black"/>
</svg>
