<svg width="34" height="34" viewBox="0 0 34 34" fill="none" xmlns="http://www.w3.org/2000/svg">
<path d="M16.9999 24.7917C18.7708 24.7917 20.2762 24.1721 21.5163 22.933C22.7554 21.6929 23.3749 20.1875 23.3749 18.4167C23.3749 16.6458 22.7554 15.1404 21.5163 13.9003C20.2762 12.6612 18.7708 12.0417 16.9999 12.0417C15.2291 12.0417 13.7236 12.6612 12.4836 13.9003C11.2445 15.1404 10.6249 16.6458 10.6249 18.4167C10.6249 20.1875 11.2445 21.6929 12.4836 22.933C13.7236 24.1721 15.2291 24.7917 16.9999 24.7917ZM5.66659 29.75C4.88742 29.75 4.22064 29.4728 3.66625 28.9184C3.11092 28.3631 2.83325 27.6958 2.83325 26.9167V9.91667C2.83325 9.1375 3.11092 8.47072 3.66625 7.91633C4.22064 7.361 4.88742 7.08333 5.66659 7.08333H10.1291L12.7499 4.25H21.2499L23.8708 7.08333H28.3333C29.1124 7.08333 29.7797 7.361 30.335 7.91633C30.8894 8.47072 31.1666 9.1375 31.1666 9.91667V26.9167C31.1666 27.6958 30.8894 28.3631 30.335 28.9184C29.7797 29.4728 29.1124 29.75 28.3333 29.75H5.66659Z" fill="white"/>
</svg>
