<svg width="39" height="39" viewBox="0 0 39 39" fill="none" xmlns="http://www.w3.org/2000/svg">
<path d="M17.875 3.25C25.948 3.25 32.5 9.802 32.5 17.875C32.5 25.948 25.948 32.5 17.875 32.5C9.802 32.5 3.25 25.948 3.25 17.875C3.25 9.802 9.802 3.25 17.875 3.25ZM17.875 29.25C24.1589 29.25 29.25 24.1589 29.25 17.875C29.25 11.5895 24.1589 6.5 17.875 6.5C11.5895 6.5 6.5 11.5895 6.5 17.875C6.5 24.1589 11.5895 29.25 17.875 29.25ZM31.6631 29.3654L36.2603 33.9609L33.9609 36.2603L29.3654 31.6631L31.6631 29.3654Z" fill="#5A5A5AE5" fill-opacity="0.9"/>
</svg>
